solid ASCII
  facet normal 9.351131e-01 2.505628e-01 2.505628e-01
    outer loop
      vertex   1.342339e-03 7.750000e-04 -4.075000e-01
      vertex   1.162500e-03 6.711697e-04 -4.067250e-01
      vertex   1.550000e-03 0.000000e+00 -4.075000e-01
    endloop
  endfacet
  facet normal 9.351131e-01 2.505628e-01 2.505628e-01
    outer loop
      vertex   1.550000e-03 0.000000e+00 -4.075000e-01
      vertex   1.162500e-03 6.711697e-04 -4.067250e-01
      vertex   1.342339e-03 0.000000e+00 -4.067250e-01
    endloop
  endfacet
  facet normal 9.351131e-01 -2.505628e-01 2.505628e-01
    outer loop
      vertex   1.550000e-03 0.000000e+00 -4.075000e-01
      vertex   1.342339e-03 0.000000e+00 -4.067250e-01
      vertex   1.342339e-03 -7.750000e-04 -4.075000e-01
    endloop
  endfacet
  facet normal 9.351131e-01 -2.505628e-01 2.505628e-01
    outer loop
      vertex   1.342339e-03 -7.750000e-04 -4.075000e-01
      vertex   1.342339e-03 0.000000e+00 -4.067250e-01
      vertex   1.162500e-03 -6.711697e-04 -4.067250e-01
    endloop
  endfacet
  facet normal 6.845503e-01 -6.845503e-01 2.505628e-01
    outer loop
      vertex   1.342339e-03 -7.750000e-04 -4.075000e-01
      vertex   1.162500e-03 -6.711697e-04 -4.067250e-01
      vertex   7.750000e-04 -1.342339e-03 -4.075000e-01
    endloop
  endfacet
  facet normal 6.845503e-01 -6.845503e-01 2.505628e-01
    outer loop
      vertex   7.750000e-04 -1.342339e-03 -4.075000e-01
      vertex   1.162500e-03 -6.711697e-04 -4.067250e-01
      vertex   6.711697e-04 -1.162500e-03 -4.067250e-01
    endloop
  endfacet
  facet normal 2.505628e-01 -9.351131e-01 2.505628e-01
    outer loop
      vertex   7.750000e-04 -1.342339e-03 -4.075000e-01
      vertex   6.711697e-04 -1.162500e-03 -4.067250e-01
      vertex   -2.847304e-19 -1.550000e-03 -4.075000e-01
    endloop
  endfacet
  facet normal 2.505628e-01 -9.351131e-01 2.505628e-01
    outer loop
      vertex   -2.847304e-19 -1.550000e-03 -4.075000e-01
      vertex   6.711697e-04 -1.162500e-03 -4.067250e-01
      vertex   -2.158646e-19 -1.342339e-03 -4.067250e-01
    endloop
  endfacet
  facet normal -2.505628e-01 -9.351131e-01 2.505628e-01
    outer loop
      vertex   -2.847304e-19 -1.550000e-03 -4.075000e-01
      vertex   -2.158646e-19 -1.342339e-03 -4.067250e-01
      vertex   -7.750000e-04 -1.342339e-03 -4.075000e-01
    endloop
  endfacet
  facet normal -2.505628e-01 -9.351131e-01 2.505628e-01
    outer loop
      vertex   -7.750000e-04 -1.342339e-03 -4.075000e-01
      vertex   -2.158646e-19 -1.342339e-03 -4.067250e-01
      vertex   -6.711697e-04 -1.162500e-03 -4.067250e-01
    endloop
  endfacet
  facet normal -6.845503e-01 -6.845503e-01 2.505628e-01
    outer loop
      vertex   -7.750000e-04 -1.342339e-03 -4.075000e-01
      vertex   -6.711697e-04 -1.162500e-03 -4.067250e-01
      vertex   -1.342339e-03 -7.750000e-04 -4.075000e-01
    endloop
  endfacet
  facet normal -6.845503e-01 -6.845503e-01 2.505628e-01
    outer loop
      vertex   -1.342339e-03 -7.750000e-04 -4.075000e-01
      vertex   -6.711697e-04 -1.162500e-03 -4.067250e-01
      vertex   -1.162500e-03 -6.711697e-04 -4.067250e-01
    endloop
  endfacet
  facet normal -9.351131e-01 -2.505628e-01 2.505628e-01
    outer loop
      vertex   -1.342339e-03 -7.750000e-04 -4.075000e-01
      vertex   -1.162500e-03 -6.711697e-04 -4.067250e-01
      vertex   -1.550000e-03 1.898203e-19 -4.075000e-01
    endloop
  endfacet
  facet normal -9.351131e-01 -2.505628e-01 2.505628e-01
    outer loop
      vertex   -1.550000e-03 1.898203e-19 -4.075000e-01
      vertex   -1.162500e-03 -6.711697e-04 -4.067250e-01
      vertex   -1.342339e-03 1.643892e-19 -4.067250e-01
    endloop
  endfacet
  facet normal -9.351131e-01 2.505628e-01 2.505628e-01
    outer loop
      vertex   -1.550000e-03 1.898203e-19 -4.075000e-01
      vertex   -1.342339e-03 1.643892e-19 -4.067250e-01
      vertex   -1.342339e-03 7.750000e-04 -4.075000e-01
    endloop
  endfacet
  facet normal -9.351131e-01 2.505628e-01 2.505628e-01
    outer loop
      vertex   -1.342339e-03 7.750000e-04 -4.075000e-01
      vertex   -1.342339e-03 1.643892e-19 -4.067250e-01
      vertex   -1.162500e-03 6.711697e-04 -4.067250e-01
    endloop
  endfacet
  facet normal -6.845503e-01 6.845503e-01 2.505628e-01
    outer loop
      vertex   -1.342339e-03 7.750000e-04 -4.075000e-01
      vertex   -1.162500e-03 6.711697e-04 -4.067250e-01
      vertex   -7.750000e-04 1.342339e-03 -4.075000e-01
    endloop
  endfacet
  facet normal -6.845503e-01 6.845503e-01 2.505628e-01
    outer loop
      vertex   -7.750000e-04 1.342339e-03 -4.075000e-01
      vertex   -1.162500e-03 6.711697e-04 -4.067250e-01
      vertex   -6.711697e-04 1.162500e-03 -4.067250e-01
    endloop
  endfacet
  facet normal -2.505628e-01 9.351131e-01 2.505628e-01
    outer loop
      vertex   -7.750000e-04 1.342339e-03 -4.075000e-01
      vertex   -6.711697e-04 1.162500e-03 -4.067250e-01
      vertex   9.491013e-20 1.550000e-03 -4.075000e-01
    endloop
  endfacet
  facet normal -2.505628e-01 9.351131e-01 2.505628e-01
    outer loop
      vertex   9.491013e-20 1.550000e-03 -4.075000e-01
      vertex   -6.711697e-04 1.162500e-03 -4.067250e-01
      vertex   8.219458e-20 1.342339e-03 -4.067250e-01
    endloop
  endfacet
  facet normal 2.505628e-01 9.351131e-01 2.505628e-01
    outer loop
      vertex   9.491013e-20 1.550000e-03 -4.075000e-01
      vertex   8.219458e-20 1.342339e-03 -4.067250e-01
      vertex   7.750000e-04 1.342339e-03 -4.075000e-01
    endloop
  endfacet
  facet normal 2.505628e-01 9.351131e-01 2.505628e-01
    outer loop
      vertex   7.750000e-04 1.342339e-03 -4.075000e-01
      vertex   8.219458e-20 1.342339e-03 -4.067250e-01
      vertex   6.711697e-04 1.162500e-03 -4.067250e-01
    endloop
  endfacet
  facet normal 6.845503e-01 6.845503e-01 2.505628e-01
    outer loop
      vertex   7.750000e-04 1.342339e-03 -4.075000e-01
      vertex   6.711697e-04 1.162500e-03 -4.067250e-01
      vertex   1.342339e-03 7.750000e-04 -4.075000e-01
    endloop
  endfacet
  facet normal 6.845503e-01 6.845503e-01 2.505628e-01
    outer loop
      vertex   1.342339e-03 7.750000e-04 -4.075000e-01
      vertex   6.711697e-04 1.162500e-03 -4.067250e-01
      vertex   1.162500e-03 6.711697e-04 -4.067250e-01
    endloop
  endfacet
  facet normal -2.581989e-01 6.918418e-02 9.636114e-01
    outer loop
      vertex   -7.750000e-04 9.491013e-20 -4.061577e-01
      vertex   -9.491013e-20 1.162314e-35 -4.059500e-01
      vertex   -6.711697e-04 3.875000e-04 -4.061577e-01
    endloop
  endfacet
  facet normal -1.890147e-01 1.890147e-01 9.636114e-01
    outer loop
      vertex   -6.711697e-04 3.875000e-04 -4.061577e-01
      vertex   -9.491013e-20 1.162314e-35 -4.059500e-01
      vertex   -3.875000e-04 6.711697e-04 -4.061577e-01
    endloop
  endfacet
  facet normal -6.918418e-02 2.581989e-01 9.636114e-01
    outer loop
      vertex   -3.875000e-04 6.711697e-04 -4.061577e-01
      vertex   -9.491013e-20 1.162314e-35 -4.059500e-01
      vertex   4.745506e-20 7.750000e-04 -4.061577e-01
    endloop
  endfacet
  facet normal 6.918418e-02 2.581989e-01 9.636114e-01
    outer loop
      vertex   4.745506e-20 7.750000e-04 -4.061577e-01
      vertex   -9.491013e-20 1.162314e-35 -4.059500e-01
      vertex   3.875000e-04 6.711697e-04 -4.061577e-01
    endloop
  endfacet
  facet normal 2.581989e-01 6.918418e-02 9.636114e-01
    outer loop
      vertex   6.711697e-04 3.875000e-04 -4.061577e-01
      vertex   -9.491013e-20 1.162314e-35 -4.059500e-01
      vertex   7.750000e-04 0.000000e+00 -4.061577e-01
    endloop
  endfacet
  facet normal 2.581989e-01 -6.918418e-02 9.636114e-01
    outer loop
      vertex   7.750000e-04 0.000000e+00 -4.061577e-01
      vertex   -9.491013e-20 1.162314e-35 -4.059500e-01
      vertex   6.711697e-04 -3.875000e-04 -4.061577e-01
    endloop
  endfacet
  facet normal 1.890147e-01 -1.890147e-01 9.636114e-01
    outer loop
      vertex   6.711697e-04 -3.875000e-04 -4.061577e-01
      vertex   -9.491013e-20 1.162314e-35 -4.059500e-01
      vertex   3.875000e-04 -6.711697e-04 -4.061577e-01
    endloop
  endfacet
  facet normal -6.918418e-02 -2.581989e-01 9.636114e-01
    outer loop
      vertex   4.745506e-20 -7.750000e-04 -4.061577e-01
      vertex   -9.491013e-20 1.162314e-35 -4.059500e-01
      vertex   -3.875000e-04 -6.711697e-04 -4.061577e-01
    endloop
  endfacet
  facet normal -1.890147e-01 -1.890147e-01 9.636114e-01
    outer loop
      vertex   -3.875000e-04 -6.711697e-04 -4.061577e-01
      vertex   -9.491013e-20 1.162314e-35 -4.059500e-01
      vertex   -6.711697e-04 -3.875000e-04 -4.061577e-01
    endloop
  endfacet
  facet normal -2.581989e-01 -6.918418e-02 9.636114e-01
    outer loop
      vertex   -6.711697e-04 -3.875000e-04 -4.061577e-01
      vertex   -9.491013e-20 1.162314e-35 -4.059500e-01
      vertex   -7.750000e-04 9.491013e-20 -4.061577e-01
    endloop
  endfacet
  facet normal -6.947466e-01 1.861568e-01 6.947466e-01
    outer loop
      vertex   -1.342339e-03 1.643892e-19 -4.067250e-01
      vertex   -7.750000e-04 9.491013e-20 -4.061577e-01
      vertex   -1.162500e-03 6.711697e-04 -4.067250e-01
    endloop
  endfacet
  facet normal -6.947466e-01 1.861568e-01 6.947466e-01
    outer loop
      vertex   -1.162500e-03 6.711697e-04 -4.067250e-01
      vertex   -7.750000e-04 9.491013e-20 -4.061577e-01
      vertex   -6.711697e-04 3.875000e-04 -4.061577e-01
    endloop
  endfacet
  facet normal -5.085898e-01 5.085898e-01 6.947466e-01
    outer loop
      vertex   -1.162500e-03 6.711697e-04 -4.067250e-01
      vertex   -6.711697e-04 3.875000e-04 -4.061577e-01
      vertex   -6.711697e-04 1.162500e-03 -4.067250e-01
    endloop
  endfacet
  facet normal -5.085898e-01 5.085898e-01 6.947466e-01
    outer loop
      vertex   -6.711697e-04 1.162500e-03 -4.067250e-01
      vertex   -6.711697e-04 3.875000e-04 -4.061577e-01
      vertex   -3.875000e-04 6.711697e-04 -4.061577e-01
    endloop
  endfacet
  facet normal -1.861568e-01 6.947466e-01 6.947466e-01
    outer loop
      vertex   -6.711697e-04 1.162500e-03 -4.067250e-01
      vertex   -3.875000e-04 6.711697e-04 -4.061577e-01
      vertex   8.219458e-20 1.342339e-03 -4.067250e-01
    endloop
  endfacet
  facet normal -1.861568e-01 6.947466e-01 6.947466e-01
    outer loop
      vertex   8.219458e-20 1.342339e-03 -4.067250e-01
      vertex   -3.875000e-04 6.711697e-04 -4.061577e-01
      vertex   4.745506e-20 7.750000e-04 -4.061577e-01
    endloop
  endfacet
  facet normal 1.861568e-01 6.947466e-01 6.947466e-01
    outer loop
      vertex   8.219458e-20 1.342339e-03 -4.067250e-01
      vertex   4.745506e-20 7.750000e-04 -4.061577e-01
      vertex   6.711697e-04 1.162500e-03 -4.067250e-01
    endloop
  endfacet
  facet normal 1.861568e-01 6.947466e-01 6.947466e-01
    outer loop
      vertex   6.711697e-04 1.162500e-03 -4.067250e-01
      vertex   4.745506e-20 7.750000e-04 -4.061577e-01
      vertex   3.875000e-04 6.711697e-04 -4.061577e-01
    endloop
  endfacet
  facet normal 5.085898e-01 5.085898e-01 6.947466e-01
    outer loop
      vertex   6.711697e-04 1.162500e-03 -4.067250e-01
      vertex   3.875000e-04 6.711697e-04 -4.061577e-01
      vertex   1.162500e-03 6.711697e-04 -4.067250e-01
    endloop
  endfacet
  facet normal 5.085898e-01 5.085898e-01 6.947466e-01
    outer loop
      vertex   1.162500e-03 6.711697e-04 -4.067250e-01
      vertex   3.875000e-04 6.711697e-04 -4.061577e-01
      vertex   6.711697e-04 3.875000e-04 -4.061577e-01
    endloop
  endfacet
  facet normal 6.947466e-01 1.861568e-01 6.947466e-01
    outer loop
      vertex   1.162500e-03 6.711697e-04 -4.067250e-01
      vertex   6.711697e-04 3.875000e-04 -4.061577e-01
      vertex   1.342339e-03 0.000000e+00 -4.067250e-01
    endloop
  endfacet
  facet normal 6.947466e-01 1.861568e-01 6.947466e-01
    outer loop
      vertex   1.342339e-03 0.000000e+00 -4.067250e-01
      vertex   6.711697e-04 3.875000e-04 -4.061577e-01
      vertex   7.750000e-04 0.000000e+00 -4.061577e-01
    endloop
  endfacet
  facet normal 6.947466e-01 -1.861568e-01 6.947466e-01
    outer loop
      vertex   1.342339e-03 0.000000e+00 -4.067250e-01
      vertex   7.750000e-04 0.000000e+00 -4.061577e-01
      vertex   1.162500e-03 -6.711697e-04 -4.067250e-01
    endloop
  endfacet
  facet normal 6.947466e-01 -1.861568e-01 6.947466e-01
    outer loop
      vertex   1.162500e-03 -6.711697e-04 -4.067250e-01
      vertex   7.750000e-04 0.000000e+00 -4.061577e-01
      vertex   6.711697e-04 -3.875000e-04 -4.061577e-01
    endloop
  endfacet
  facet normal 5.085898e-01 -5.085898e-01 6.947466e-01
    outer loop
      vertex   1.162500e-03 -6.711697e-04 -4.067250e-01
      vertex   6.711697e-04 -3.875000e-04 -4.061577e-01
      vertex   6.711697e-04 -1.162500e-03 -4.067250e-01
    endloop
  endfacet
  facet normal 5.085898e-01 -5.085898e-01 6.947466e-01
    outer loop
      vertex   6.711697e-04 -1.162500e-03 -4.067250e-01
      vertex   6.711697e-04 -3.875000e-04 -4.061577e-01
      vertex   3.875000e-04 -6.711697e-04 -4.061577e-01
    endloop
  endfacet
  facet normal 1.861568e-01 -6.947466e-01 6.947466e-01
    outer loop
      vertex   6.711697e-04 -1.162500e-03 -4.067250e-01
      vertex   3.875000e-04 -6.711697e-04 -4.061577e-01
      vertex   -2.158646e-19 -1.342339e-03 -4.067250e-01
    endloop
  endfacet
  facet normal 1.861568e-01 -6.947466e-01 6.947466e-01
    outer loop
      vertex   -2.158646e-19 -1.342339e-03 -4.067250e-01
      vertex   3.875000e-04 -6.711697e-04 -4.061577e-01
      vertex   4.745506e-20 -7.750000e-04 -4.061577e-01
    endloop
  endfacet
  facet normal -1.861568e-01 -6.947466e-01 6.947466e-01
    outer loop
      vertex   -2.158646e-19 -1.342339e-03 -4.067250e-01
      vertex   4.745506e-20 -7.750000e-04 -4.061577e-01
      vertex   -6.711697e-04 -1.162500e-03 -4.067250e-01
    endloop
  endfacet
  facet normal -1.861568e-01 -6.947466e-01 6.947466e-01
    outer loop
      vertex   -6.711697e-04 -1.162500e-03 -4.067250e-01
      vertex   4.745506e-20 -7.750000e-04 -4.061577e-01
      vertex   -3.875000e-04 -6.711697e-04 -4.061577e-01
    endloop
  endfacet
  facet normal -5.085898e-01 -5.085898e-01 6.947466e-01
    outer loop
      vertex   -6.711697e-04 -1.162500e-03 -4.067250e-01
      vertex   -3.875000e-04 -6.711697e-04 -4.061577e-01
      vertex   -1.162500e-03 -6.711697e-04 -4.067250e-01
    endloop
  endfacet
  facet normal -5.085898e-01 -5.085898e-01 6.947466e-01
    outer loop
      vertex   -1.162500e-03 -6.711697e-04 -4.067250e-01
      vertex   -3.875000e-04 -6.711697e-04 -4.061577e-01
      vertex   -6.711697e-04 -3.875000e-04 -4.061577e-01
    endloop
  endfacet
  facet normal -6.947466e-01 -1.861568e-01 6.947466e-01
    outer loop
      vertex   -1.162500e-03 -6.711697e-04 -4.067250e-01
      vertex   -6.711697e-04 -3.875000e-04 -4.061577e-01
      vertex   -1.342339e-03 1.643892e-19 -4.067250e-01
    endloop
  endfacet
  facet normal -6.947466e-01 -1.861568e-01 6.947466e-01
    outer loop
      vertex   -1.342339e-03 1.643892e-19 -4.067250e-01
      vertex   -6.711697e-04 -3.875000e-04 -4.061577e-01
      vertex   -7.750000e-04 9.491013e-20 -4.061577e-01
    endloop
  endfacet
  facet normal 6.918418e-02 -2.581989e-01 9.636114e-01
    outer loop
      vertex   3.875000e-04 -6.711697e-04 -4.061577e-01
      vertex   -9.491013e-20 1.162314e-35 -4.059500e-01
      vertex   4.745506e-20 -7.750000e-04 -4.061577e-01
    endloop
  endfacet
  facet normal 1.890147e-01 1.890147e-01 9.636114e-01
    outer loop
      vertex   3.875000e-04 6.711697e-04 -4.061577e-01
      vertex   -9.491013e-20 1.162314e-35 -4.059500e-01
      vertex   6.711697e-04 3.875000e-04 -4.061577e-01
    endloop
  endfacet
  facet normal 9.351131e-01 -2.505628e-01 -2.505628e-01
    outer loop
      vertex   1.342339e-03 -7.750000e-04 -4.975000e-01
      vertex   1.162500e-03 -6.711697e-04 -4.982750e-01
      vertex   1.550000e-03 0.000000e+00 -4.975000e-01
    endloop
  endfacet
  facet normal 9.351131e-01 -2.505628e-01 -2.505628e-01
    outer loop
      vertex   1.550000e-03 0.000000e+00 -4.975000e-01
      vertex   1.162500e-03 -6.711697e-04 -4.982750e-01
      vertex   1.342339e-03 0.000000e+00 -4.982750e-01
    endloop
  endfacet
  facet normal 9.351131e-01 2.505628e-01 -2.505628e-01
    outer loop
      vertex   1.550000e-03 0.000000e+00 -4.975000e-01
      vertex   1.342339e-03 0.000000e+00 -4.982750e-01
      vertex   1.342339e-03 7.750000e-04 -4.975000e-01
    endloop
  endfacet
  facet normal 9.351131e-01 2.505628e-01 -2.505628e-01
    outer loop
      vertex   1.342339e-03 7.750000e-04 -4.975000e-01
      vertex   1.342339e-03 0.000000e+00 -4.982750e-01
      vertex   1.162500e-03 6.711697e-04 -4.982750e-01
    endloop
  endfacet
  facet normal 6.845503e-01 6.845503e-01 -2.505628e-01
    outer loop
      vertex   1.342339e-03 7.750000e-04 -4.975000e-01
      vertex   1.162500e-03 6.711697e-04 -4.982750e-01
      vertex   7.750000e-04 1.342339e-03 -4.975000e-01
    endloop
  endfacet
  facet normal 6.845503e-01 6.845503e-01 -2.505628e-01
    outer loop
      vertex   7.750000e-04 1.342339e-03 -4.975000e-01
      vertex   1.162500e-03 6.711697e-04 -4.982750e-01
      vertex   6.711697e-04 1.162500e-03 -4.982750e-01
    endloop
  endfacet
  facet normal 2.505628e-01 9.351131e-01 -2.505628e-01
    outer loop
      vertex   7.750000e-04 1.342339e-03 -4.975000e-01
      vertex   6.711697e-04 1.162500e-03 -4.982750e-01
      vertex   -2.847304e-19 1.550000e-03 -4.975000e-01
    endloop
  endfacet
  facet normal 2.505628e-01 9.351131e-01 -2.505628e-01
    outer loop
      vertex   -2.847304e-19 1.550000e-03 -4.975000e-01
      vertex   6.711697e-04 1.162500e-03 -4.982750e-01
      vertex   -2.158646e-19 1.342339e-03 -4.982750e-01
    endloop
  endfacet
  facet normal -2.505628e-01 9.351131e-01 -2.505628e-01
    outer loop
      vertex   -2.847304e-19 1.550000e-03 -4.975000e-01
      vertex   -2.158646e-19 1.342339e-03 -4.982750e-01
      vertex   -7.750000e-04 1.342339e-03 -4.975000e-01
    endloop
  endfacet
  facet normal -2.505628e-01 9.351131e-01 -2.505628e-01
    outer loop
      vertex   -7.750000e-04 1.342339e-03 -4.975000e-01
      vertex   -2.158646e-19 1.342339e-03 -4.982750e-01
      vertex   -6.711697e-04 1.162500e-03 -4.982750e-01
    endloop
  endfacet
  facet normal -6.845503e-01 6.845503e-01 -2.505628e-01
    outer loop
      vertex   -7.750000e-04 1.342339e-03 -4.975000e-01
      vertex   -6.711697e-04 1.162500e-03 -4.982750e-01
      vertex   -1.342339e-03 7.750000e-04 -4.975000e-01
    endloop
  endfacet
  facet normal -6.845503e-01 6.845503e-01 -2.505628e-01
    outer loop
      vertex   -1.342339e-03 7.750000e-04 -4.975000e-01
      vertex   -6.711697e-04 1.162500e-03 -4.982750e-01
      vertex   -1.162500e-03 6.711697e-04 -4.982750e-01
    endloop
  endfacet
  facet normal -9.351131e-01 2.505628e-01 -2.505628e-01
    outer loop
      vertex   -1.342339e-03 7.750000e-04 -4.975000e-01
      vertex   -1.162500e-03 6.711697e-04 -4.982750e-01
      vertex   -1.550000e-03 -1.898203e-19 -4.975000e-01
    endloop
  endfacet
  facet normal -9.351131e-01 2.505628e-01 -2.505628e-01
    outer loop
      vertex   -1.550000e-03 -1.898203e-19 -4.975000e-01
      vertex   -1.162500e-03 6.711697e-04 -4.982750e-01
      vertex   -1.342339e-03 -1.643892e-19 -4.982750e-01
    endloop
  endfacet
  facet normal -9.351131e-01 -2.505628e-01 -2.505628e-01
    outer loop
      vertex   -1.550000e-03 -1.898203e-19 -4.975000e-01
      vertex   -1.342339e-03 -1.643892e-19 -4.982750e-01
      vertex   -1.342339e-03 -7.750000e-04 -4.975000e-01
    endloop
  endfacet
  facet normal -9.351131e-01 -2.505628e-01 -2.505628e-01
    outer loop
      vertex   -1.342339e-03 -7.750000e-04 -4.975000e-01
      vertex   -1.342339e-03 -1.643892e-19 -4.982750e-01
      vertex   -1.162500e-03 -6.711697e-04 -4.982750e-01
    endloop
  endfacet
  facet normal -6.845503e-01 -6.845503e-01 -2.505628e-01
    outer loop
      vertex   -1.342339e-03 -7.750000e-04 -4.975000e-01
      vertex   -1.162500e-03 -6.711697e-04 -4.982750e-01
      vertex   -7.750000e-04 -1.342339e-03 -4.975000e-01
    endloop
  endfacet
  facet normal -6.845503e-01 -6.845503e-01 -2.505628e-01
    outer loop
      vertex   -7.750000e-04 -1.342339e-03 -4.975000e-01
      vertex   -1.162500e-03 -6.711697e-04 -4.982750e-01
      vertex   -6.711697e-04 -1.162500e-03 -4.982750e-01
    endloop
  endfacet
  facet normal -2.505628e-01 -9.351131e-01 -2.505628e-01
    outer loop
      vertex   -7.750000e-04 -1.342339e-03 -4.975000e-01
      vertex   -6.711697e-04 -1.162500e-03 -4.982750e-01
      vertex   9.491013e-20 -1.550000e-03 -4.975000e-01
    endloop
  endfacet
  facet normal -2.505628e-01 -9.351131e-01 -2.505628e-01
    outer loop
      vertex   9.491013e-20 -1.550000e-03 -4.975000e-01
      vertex   -6.711697e-04 -1.162500e-03 -4.982750e-01
      vertex   8.219458e-20 -1.342339e-03 -4.982750e-01
    endloop
  endfacet
  facet normal 2.505628e-01 -9.351131e-01 -2.505628e-01
    outer loop
      vertex   9.491013e-20 -1.550000e-03 -4.975000e-01
      vertex   8.219458e-20 -1.342339e-03 -4.982750e-01
      vertex   7.750000e-04 -1.342339e-03 -4.975000e-01
    endloop
  endfacet
  facet normal 2.505628e-01 -9.351131e-01 -2.505628e-01
    outer loop
      vertex   7.750000e-04 -1.342339e-03 -4.975000e-01
      vertex   8.219458e-20 -1.342339e-03 -4.982750e-01
      vertex   6.711697e-04 -1.162500e-03 -4.982750e-01
    endloop
  endfacet
  facet normal 6.845503e-01 -6.845503e-01 -2.505628e-01
    outer loop
      vertex   7.750000e-04 -1.342339e-03 -4.975000e-01
      vertex   6.711697e-04 -1.162500e-03 -4.982750e-01
      vertex   1.342339e-03 -7.750000e-04 -4.975000e-01
    endloop
  endfacet
  facet normal 6.845503e-01 -6.845503e-01 -2.505628e-01
    outer loop
      vertex   1.342339e-03 -7.750000e-04 -4.975000e-01
      vertex   6.711697e-04 -1.162500e-03 -4.982750e-01
      vertex   1.162500e-03 -6.711697e-04 -4.982750e-01
    endloop
  endfacet
  facet normal -2.581989e-01 -6.918418e-02 -9.636114e-01
    outer loop
      vertex   -7.750000e-04 -9.491013e-20 -4.988423e-01
      vertex   -9.491013e-20 -1.162314e-35 -4.990500e-01
      vertex   -6.711697e-04 -3.875000e-04 -4.988423e-01
    endloop
  endfacet
  facet normal -1.890147e-01 -1.890147e-01 -9.636114e-01
    outer loop
      vertex   -6.711697e-04 -3.875000e-04 -4.988423e-01
      vertex   -9.491013e-20 -1.162314e-35 -4.990500e-01
      vertex   -3.875000e-04 -6.711697e-04 -4.988423e-01
    endloop
  endfacet
  facet normal -6.918418e-02 -2.581989e-01 -9.636114e-01
    outer loop
      vertex   -3.875000e-04 -6.711697e-04 -4.988423e-01
      vertex   -9.491013e-20 -1.162314e-35 -4.990500e-01
      vertex   4.745506e-20 -7.750000e-04 -4.988423e-01
    endloop
  endfacet
  facet normal 6.918418e-02 -2.581989e-01 -9.636114e-01
    outer loop
      vertex   4.745506e-20 -7.750000e-04 -4.988423e-01
      vertex   -9.491013e-20 -1.162314e-35 -4.990500e-01
      vertex   3.875000e-04 -6.711697e-04 -4.988423e-01
    endloop
  endfacet
  facet normal 2.581989e-01 -6.918418e-02 -9.636114e-01
    outer loop
      vertex   6.711697e-04 -3.875000e-04 -4.988423e-01
      vertex   -9.491013e-20 -1.162314e-35 -4.990500e-01
      vertex   7.750000e-04 0.000000e+00 -4.988423e-01
    endloop
  endfacet
  facet normal 2.581989e-01 6.918418e-02 -9.636114e-01
    outer loop
      vertex   7.750000e-04 0.000000e+00 -4.988423e-01
      vertex   -9.491013e-20 -1.162314e-35 -4.990500e-01
      vertex   6.711697e-04 3.875000e-04 -4.988423e-01
    endloop
  endfacet
  facet normal 1.890147e-01 1.890147e-01 -9.636114e-01
    outer loop
      vertex   6.711697e-04 3.875000e-04 -4.988423e-01
      vertex   -9.491013e-20 -1.162314e-35 -4.990500e-01
      vertex   3.875000e-04 6.711697e-04 -4.988423e-01
    endloop
  endfacet
  facet normal -6.918418e-02 2.581989e-01 -9.636114e-01
    outer loop
      vertex   -1.246295e-19 7.750000e-04 -4.988423e-01
      vertex   -9.491013e-20 -1.162314e-35 -4.990500e-01
      vertex   -3.875000e-04 6.711697e-04 -4.988423e-01
    endloop
  endfacet
  facet normal -1.890147e-01 1.890147e-01 -9.636114e-01
    outer loop
      vertex   -3.875000e-04 6.711697e-04 -4.988423e-01
      vertex   -9.491013e-20 -1.162314e-35 -4.990500e-01
      vertex   -6.711697e-04 3.875000e-04 -4.988423e-01
    endloop
  endfacet
  facet normal -2.581989e-01 6.918418e-02 -9.636114e-01
    outer loop
      vertex   -6.711697e-04 3.875000e-04 -4.988423e-01
      vertex   -9.491013e-20 -1.162314e-35 -4.990500e-01
      vertex   -7.750000e-04 -9.491013e-20 -4.988423e-01
    endloop
  endfacet
  facet normal -6.947466e-01 -1.861568e-01 -6.947466e-01
    outer loop
      vertex   -1.342339e-03 -1.643892e-19 -4.982750e-01
      vertex   -7.750000e-04 -9.491013e-20 -4.988423e-01
      vertex   -1.162500e-03 -6.711697e-04 -4.982750e-01
    endloop
  endfacet
  facet normal -6.947466e-01 -1.861568e-01 -6.947466e-01
    outer loop
      vertex   -1.162500e-03 -6.711697e-04 -4.982750e-01
      vertex   -7.750000e-04 -9.491013e-20 -4.988423e-01
      vertex   -6.711697e-04 -3.875000e-04 -4.988423e-01
    endloop
  endfacet
  facet normal -5.085898e-01 -5.085898e-01 -6.947466e-01
    outer loop
      vertex   -1.162500e-03 -6.711697e-04 -4.982750e-01
      vertex   -6.711697e-04 -3.875000e-04 -4.988423e-01
      vertex   -6.711697e-04 -1.162500e-03 -4.982750e-01
    endloop
  endfacet
  facet normal -5.085898e-01 -5.085898e-01 -6.947466e-01
    outer loop
      vertex   -6.711697e-04 -1.162500e-03 -4.982750e-01
      vertex   -6.711697e-04 -3.875000e-04 -4.988423e-01
      vertex   -3.875000e-04 -6.711697e-04 -4.988423e-01
    endloop
  endfacet
  facet normal -1.861568e-01 -6.947466e-01 -6.947466e-01
    outer loop
      vertex   -6.711697e-04 -1.162500e-03 -4.982750e-01
      vertex   -3.875000e-04 -6.711697e-04 -4.988423e-01
      vertex   8.219458e-20 -1.342339e-03 -4.982750e-01
    endloop
  endfacet
  facet normal -1.861568e-01 -6.947466e-01 -6.947466e-01
    outer loop
      vertex   8.219458e-20 -1.342339e-03 -4.982750e-01
      vertex   -3.875000e-04 -6.711697e-04 -4.988423e-01
      vertex   4.745506e-20 -7.750000e-04 -4.988423e-01
    endloop
  endfacet
  facet normal 1.861568e-01 -6.947466e-01 -6.947466e-01
    outer loop
      vertex   8.219458e-20 -1.342339e-03 -4.982750e-01
      vertex   4.745506e-20 -7.750000e-04 -4.988423e-01
      vertex   6.711697e-04 -1.162500e-03 -4.982750e-01
    endloop
  endfacet
  facet normal 1.861568e-01 -6.947466e-01 -6.947466e-01
    outer loop
      vertex   6.711697e-04 -1.162500e-03 -4.982750e-01
      vertex   4.745506e-20 -7.750000e-04 -4.988423e-01
      vertex   3.875000e-04 -6.711697e-04 -4.988423e-01
    endloop
  endfacet
  facet normal 5.085898e-01 -5.085898e-01 -6.947466e-01
    outer loop
      vertex   6.711697e-04 -1.162500e-03 -4.982750e-01
      vertex   3.875000e-04 -6.711697e-04 -4.988423e-01
      vertex   1.162500e-03 -6.711697e-04 -4.982750e-01
    endloop
  endfacet
  facet normal 5.085898e-01 -5.085898e-01 -6.947466e-01
    outer loop
      vertex   1.162500e-03 -6.711697e-04 -4.982750e-01
      vertex   3.875000e-04 -6.711697e-04 -4.988423e-01
      vertex   6.711697e-04 -3.875000e-04 -4.988423e-01
    endloop
  endfacet
  facet normal 6.947466e-01 -1.861568e-01 -6.947466e-01
    outer loop
      vertex   1.162500e-03 -6.711697e-04 -4.982750e-01
      vertex   6.711697e-04 -3.875000e-04 -4.988423e-01
      vertex   1.342339e-03 0.000000e+00 -4.982750e-01
    endloop
  endfacet
  facet normal 6.947466e-01 -1.861568e-01 -6.947466e-01
    outer loop
      vertex   1.342339e-03 0.000000e+00 -4.982750e-01
      vertex   6.711697e-04 -3.875000e-04 -4.988423e-01
      vertex   7.750000e-04 0.000000e+00 -4.988423e-01
    endloop
  endfacet
  facet normal 6.947466e-01 1.861568e-01 -6.947466e-01
    outer loop
      vertex   1.342339e-03 0.000000e+00 -4.982750e-01
      vertex   7.750000e-04 0.000000e+00 -4.988423e-01
      vertex   1.162500e-03 6.711697e-04 -4.982750e-01
    endloop
  endfacet
  facet normal 6.947466e-01 1.861568e-01 -6.947466e-01
    outer loop
      vertex   1.162500e-03 6.711697e-04 -4.982750e-01
      vertex   7.750000e-04 0.000000e+00 -4.988423e-01
      vertex   6.711697e-04 3.875000e-04 -4.988423e-01
    endloop
  endfacet
  facet normal 5.085898e-01 5.085898e-01 -6.947466e-01
    outer loop
      vertex   1.162500e-03 6.711697e-04 -4.982750e-01
      vertex   6.711697e-04 3.875000e-04 -4.988423e-01
      vertex   6.711697e-04 1.162500e-03 -4.982750e-01
    endloop
  endfacet
  facet normal 5.085898e-01 5.085898e-01 -6.947466e-01
    outer loop
      vertex   6.711697e-04 1.162500e-03 -4.982750e-01
      vertex   6.711697e-04 3.875000e-04 -4.988423e-01
      vertex   3.875000e-04 6.711697e-04 -4.988423e-01
    endloop
  endfacet
  facet normal 1.861568e-01 6.947466e-01 -6.947466e-01
    outer loop
      vertex   6.711697e-04 1.162500e-03 -4.982750e-01
      vertex   3.875000e-04 6.711697e-04 -4.988423e-01
      vertex   -2.158646e-19 1.342339e-03 -4.982750e-01
    endloop
  endfacet
  facet normal 1.861568e-01 6.947466e-01 -6.947466e-01
    outer loop
      vertex   -2.158646e-19 1.342339e-03 -4.982750e-01
      vertex   3.875000e-04 6.711697e-04 -4.988423e-01
      vertex   -1.246295e-19 7.750000e-04 -4.988423e-01
    endloop
  endfacet
  facet normal -1.861568e-01 6.947466e-01 -6.947466e-01
    outer loop
      vertex   -2.158646e-19 1.342339e-03 -4.982750e-01
      vertex   -1.246295e-19 7.750000e-04 -4.988423e-01
      vertex   -6.711697e-04 1.162500e-03 -4.982750e-01
    endloop
  endfacet
  facet normal -1.861568e-01 6.947466e-01 -6.947466e-01
    outer loop
      vertex   -6.711697e-04 1.162500e-03 -4.982750e-01
      vertex   -1.246295e-19 7.750000e-04 -4.988423e-01
      vertex   -3.875000e-04 6.711697e-04 -4.988423e-01
    endloop
  endfacet
  facet normal -5.085898e-01 5.085898e-01 -6.947466e-01
    outer loop
      vertex   -6.711697e-04 1.162500e-03 -4.982750e-01
      vertex   -3.875000e-04 6.711697e-04 -4.988423e-01
      vertex   -1.162500e-03 6.711697e-04 -4.982750e-01
    endloop
  endfacet
  facet normal -5.085898e-01 5.085898e-01 -6.947466e-01
    outer loop
      vertex   -1.162500e-03 6.711697e-04 -4.982750e-01
      vertex   -3.875000e-04 6.711697e-04 -4.988423e-01
      vertex   -6.711697e-04 3.875000e-04 -4.988423e-01
    endloop
  endfacet
  facet normal -6.947466e-01 1.861568e-01 -6.947466e-01
    outer loop
      vertex   -1.162500e-03 6.711697e-04 -4.982750e-01
      vertex   -6.711697e-04 3.875000e-04 -4.988423e-01
      vertex   -1.342339e-03 -1.643892e-19 -4.982750e-01
    endloop
  endfacet
  facet normal -6.947466e-01 1.861568e-01 -6.947466e-01
    outer loop
      vertex   -1.342339e-03 -1.643892e-19 -4.982750e-01
      vertex   -6.711697e-04 3.875000e-04 -4.988423e-01
      vertex   -7.750000e-04 -9.491013e-20 -4.988423e-01
    endloop
  endfacet
  facet normal 1.890147e-01 -1.890147e-01 -9.636114e-01
    outer loop
      vertex   3.875000e-04 -6.711697e-04 -4.988423e-01
      vertex   -9.491013e-20 -1.162314e-35 -4.990500e-01
      vertex   6.711697e-04 -3.875000e-04 -4.988423e-01
    endloop
  endfacet
  facet normal 6.918418e-02 2.581989e-01 -9.636114e-01
    outer loop
      vertex   3.875000e-04 6.711697e-04 -4.988423e-01
      vertex   -9.491013e-20 -1.162314e-35 -4.990500e-01
      vertex   -1.246295e-19 7.750000e-04 -4.988423e-01
    endloop
  endfacet
  facet normal 9.659258e-01 2.588190e-01 -1.022196e-17
    outer loop
      vertex   1.342339e-03 7.750000e-04 -4.975000e-01
      vertex   1.342339e-03 7.750000e-04 -4.825000e-01
      vertex   1.550000e-03 0.000000e+00 -4.975000e-01
    endloop
  endfacet
  facet normal 9.659258e-01 2.588190e-01 -0.000000e+00
    outer loop
      vertex   1.550000e-03 0.000000e+00 -4.975000e-01
      vertex   1.342339e-03 7.750000e-04 -4.825000e-01
      vertex   1.550000e-03 0.000000e+00 -4.825000e-01
    endloop
  endfacet
  facet normal 9.659258e-01 -2.588190e-01 0.000000e+00
    outer loop
      vertex   1.550000e-03 0.000000e+00 -4.975000e-01
      vertex   1.550000e-03 0.000000e+00 -4.825000e-01
      vertex   1.342339e-03 -7.750000e-04 -4.975000e-01
    endloop
  endfacet
  facet normal 9.659258e-01 -2.588190e-01 1.209270e-17
    outer loop
      vertex   1.342339e-03 -7.750000e-04 -4.975000e-01
      vertex   1.550000e-03 0.000000e+00 -4.825000e-01
      vertex   1.342339e-03 -7.750000e-04 -4.825000e-01
    endloop
  endfacet
  facet normal 7.071068e-01 -7.071068e-01 5.110978e-18
    outer loop
      vertex   1.342339e-03 -7.750000e-04 -4.975000e-01
      vertex   1.342339e-03 -7.750000e-04 -4.825000e-01
      vertex   7.750000e-04 -1.342339e-03 -4.975000e-01
    endloop
  endfacet
  facet normal 7.071068e-01 -7.071068e-01 5.110978e-18
    outer loop
      vertex   7.750000e-04 -1.342339e-03 -4.975000e-01
      vertex   1.342339e-03 -7.750000e-04 -4.825000e-01
      vertex   7.750000e-04 -1.342339e-03 -4.825000e-01
    endloop
  endfacet
  facet normal 2.588190e-01 -9.659258e-01 -8.351208e-18
    outer loop
      vertex   7.750000e-04 -1.342339e-03 -4.975000e-01
      vertex   7.750000e-04 -1.342339e-03 -4.825000e-01
      vertex   9.491013e-20 -1.550000e-03 -4.975000e-01
    endloop
  endfacet
  facet normal 2.588190e-01 -9.659258e-01 0.000000e+00
    outer loop
      vertex   9.491013e-20 -1.550000e-03 -4.975000e-01
      vertex   7.750000e-04 -1.342339e-03 -4.825000e-01
      vertex   9.491013e-20 -1.550000e-03 -4.825000e-01
    endloop
  endfacet
  facet normal -2.588190e-01 -9.659258e-01 0.000000e+00
    outer loop
      vertex   9.491013e-20 -1.550000e-03 -4.975000e-01
      vertex   9.491013e-20 -1.550000e-03 -4.825000e-01
      vertex   -7.750000e-04 -1.342339e-03 -4.975000e-01
    endloop
  endfacet
  facet normal -2.588190e-01 -9.659258e-01 0.000000e+00
    outer loop
      vertex   -7.750000e-04 -1.342339e-03 -4.975000e-01
      vertex   9.491013e-20 -1.550000e-03 -4.825000e-01
      vertex   -7.750000e-04 -1.342339e-03 -4.825000e-01
    endloop
  endfacet
  facet normal -7.071068e-01 -7.071068e-01 0.000000e+00
    outer loop
      vertex   -7.750000e-04 -1.342339e-03 -4.975000e-01
      vertex   -7.750000e-04 -1.342339e-03 -4.825000e-01
      vertex   -1.342339e-03 -7.750000e-04 -4.975000e-01
    endloop
  endfacet
  facet normal -7.071068e-01 -7.071068e-01 0.000000e+00
    outer loop
      vertex   -1.342339e-03 -7.750000e-04 -4.975000e-01
      vertex   -7.750000e-04 -1.342339e-03 -4.825000e-01
      vertex   -1.342339e-03 -7.750000e-04 -4.825000e-01
    endloop
  endfacet
  facet normal -9.659258e-01 -2.588190e-01 0.000000e+00
    outer loop
      vertex   -1.342339e-03 -7.750000e-04 -4.975000e-01
      vertex   -1.342339e-03 -7.750000e-04 -4.825000e-01
      vertex   -1.550000e-03 -1.898203e-19 -4.975000e-01
    endloop
  endfacet
  facet normal -9.659258e-01 -2.588190e-01 6.550546e-18
    outer loop
      vertex   -1.550000e-03 -1.898203e-19 -4.975000e-01
      vertex   -1.342339e-03 -7.750000e-04 -4.825000e-01
      vertex   -1.550000e-03 1.898203e-19 -4.825000e-01
    endloop
  endfacet
  facet normal -9.659258e-01 2.588190e-01 -6.550546e-18
    outer loop
      vertex   -1.550000e-03 -1.898203e-19 -4.975000e-01
      vertex   -1.550000e-03 1.898203e-19 -4.825000e-01
      vertex   -1.342339e-03 7.750000e-04 -4.975000e-01
    endloop
  endfacet
  facet normal -9.659258e-01 2.588190e-01 5.612243e-18
    outer loop
      vertex   -1.342339e-03 7.750000e-04 -4.975000e-01
      vertex   -1.550000e-03 1.898203e-19 -4.825000e-01
      vertex   -1.342339e-03 7.750000e-04 -4.825000e-01
    endloop
  endfacet
  facet normal -7.071068e-01 7.071068e-01 1.533293e-17
    outer loop
      vertex   -1.342339e-03 7.750000e-04 -4.975000e-01
      vertex   -1.342339e-03 7.750000e-04 -4.825000e-01
      vertex   -7.750000e-04 1.342339e-03 -4.975000e-01
    endloop
  endfacet
  facet normal -7.071068e-01 7.071068e-01 5.110978e-18
    outer loop
      vertex   -7.750000e-04 1.342339e-03 -4.975000e-01
      vertex   -1.342339e-03 7.750000e-04 -4.825000e-01
      vertex   -7.750000e-04 1.342339e-03 -4.825000e-01
    endloop
  endfacet
  facet normal -2.588190e-01 9.659258e-01 1.209270e-17
    outer loop
      vertex   -7.750000e-04 1.342339e-03 -4.975000e-01
      vertex   -7.750000e-04 1.342339e-03 -4.825000e-01
      vertex   -2.847304e-19 1.550000e-03 -4.975000e-01
    endloop
  endfacet
  facet normal -2.588190e-01 9.659258e-01 6.120444e-19
    outer loop
      vertex   -2.847304e-19 1.550000e-03 -4.975000e-01
      vertex   -7.750000e-04 1.342339e-03 -4.825000e-01
      vertex   -2.492590e-19 1.550000e-03 -4.825000e-01
    endloop
  endfacet
  facet normal 2.588190e-01 9.659258e-01 -6.120444e-19
    outer loop
      vertex   -2.847304e-19 1.550000e-03 -4.975000e-01
      vertex   -2.492590e-19 1.550000e-03 -4.825000e-01
      vertex   7.750000e-04 1.342339e-03 -4.975000e-01
    endloop
  endfacet
  facet normal 2.588190e-01 9.659258e-01 2.418541e-17
    outer loop
      vertex   7.750000e-04 1.342339e-03 -4.975000e-01
      vertex   -2.492590e-19 1.550000e-03 -4.825000e-01
      vertex   7.750000e-04 1.342339e-03 -4.825000e-01
    endloop
  endfacet
  facet normal 7.071068e-01 7.071068e-01 1.022196e-17
    outer loop
      vertex   7.750000e-04 1.342339e-03 -4.975000e-01
      vertex   7.750000e-04 1.342339e-03 -4.825000e-01
      vertex   1.342339e-03 7.750000e-04 -4.975000e-01
    endloop
  endfacet
  facet normal 7.071068e-01 7.071068e-01 1.562757e-32
    outer loop
      vertex   1.342339e-03 7.750000e-04 -4.975000e-01
      vertex   7.750000e-04 1.342339e-03 -4.825000e-01
      vertex   1.342339e-03 7.750000e-04 -4.825000e-01
    endloop
  endfacet
  facet normal 9.659258e-01 -2.588190e-01 1.022196e-17
    outer loop
      vertex   1.342339e-03 -7.750000e-04 -4.075000e-01
      vertex   1.342339e-03 -7.750000e-04 -4.225000e-01
      vertex   1.550000e-03 0.000000e+00 -4.075000e-01
    endloop
  endfacet
  facet normal 9.659258e-01 -2.588190e-01 0.000000e+00
    outer loop
      vertex   1.550000e-03 0.000000e+00 -4.075000e-01
      vertex   1.342339e-03 -7.750000e-04 -4.225000e-01
      vertex   1.550000e-03 0.000000e+00 -4.225000e-01
    endloop
  endfacet
  facet normal 9.659258e-01 2.588190e-01 0.000000e+00
    outer loop
      vertex   1.550000e-03 0.000000e+00 -4.075000e-01
      vertex   1.550000e-03 0.000000e+00 -4.225000e-01
      vertex   1.342339e-03 7.750000e-04 -4.075000e-01
    endloop
  endfacet
  facet normal 9.659258e-01 2.588190e-01 -1.209270e-17
    outer loop
      vertex   1.342339e-03 7.750000e-04 -4.075000e-01
      vertex   1.550000e-03 0.000000e+00 -4.225000e-01
      vertex   1.342339e-03 7.750000e-04 -4.225000e-01
    endloop
  endfacet
  facet normal 7.071068e-01 7.071068e-01 -5.110978e-18
    outer loop
      vertex   1.342339e-03 7.750000e-04 -4.075000e-01
      vertex   1.342339e-03 7.750000e-04 -4.225000e-01
      vertex   7.750000e-04 1.342339e-03 -4.075000e-01
    endloop
  endfacet
  facet normal 7.071068e-01 7.071068e-01 -5.110978e-18
    outer loop
      vertex   7.750000e-04 1.342339e-03 -4.075000e-01
      vertex   1.342339e-03 7.750000e-04 -4.225000e-01
      vertex   7.750000e-04 1.342339e-03 -4.225000e-01
    endloop
  endfacet
  facet normal 2.588190e-01 9.659258e-01 8.351208e-18
    outer loop
      vertex   7.750000e-04 1.342339e-03 -4.075000e-01
      vertex   7.750000e-04 1.342339e-03 -4.225000e-01
      vertex   9.491013e-20 1.550000e-03 -4.075000e-01
    endloop
  endfacet
  facet normal 2.588190e-01 9.659258e-01 -5.938502e-18
    outer loop
      vertex   9.491013e-20 1.550000e-03 -4.075000e-01
      vertex   7.750000e-04 1.342339e-03 -4.225000e-01
      vertex   -2.492590e-19 1.550000e-03 -4.225000e-01
    endloop
  endfacet
  facet normal -2.588190e-01 9.659258e-01 5.938502e-18
    outer loop
      vertex   9.491013e-20 1.550000e-03 -4.075000e-01
      vertex   -2.492590e-19 1.550000e-03 -4.225000e-01
      vertex   -7.750000e-04 1.342339e-03 -4.075000e-01
    endloop
  endfacet
  facet normal -2.588190e-01 9.659258e-01 -4.609713e-18
    outer loop
      vertex   -7.750000e-04 1.342339e-03 -4.075000e-01
      vertex   -2.492590e-19 1.550000e-03 -4.225000e-01
      vertex   -7.750000e-04 1.342339e-03 -4.225000e-01
    endloop
  endfacet
  facet normal -7.071068e-01 7.071068e-01 1.533293e-17
    outer loop
      vertex   -7.750000e-04 1.342339e-03 -4.075000e-01
      vertex   -7.750000e-04 1.342339e-03 -4.225000e-01
      vertex   -1.342339e-03 7.750000e-04 -4.075000e-01
    endloop
  endfacet
  facet normal -7.071068e-01 7.071068e-01 -2.044391e-17
    outer loop
      vertex   -1.342339e-03 7.750000e-04 -4.075000e-01
      vertex   -7.750000e-04 1.342339e-03 -4.225000e-01
      vertex   -1.342339e-03 7.750000e-04 -4.225000e-01
    endloop
  endfacet
  facet normal -9.659258e-01 2.588190e-01 2.738965e-18
    outer loop
      vertex   -1.342339e-03 7.750000e-04 -4.075000e-01
      vertex   -1.342339e-03 7.750000e-04 -4.225000e-01
      vertex   -1.550000e-03 1.898203e-19 -4.075000e-01
    endloop
  endfacet
  facet normal -9.659258e-01 2.588190e-01 0.000000e+00
    outer loop
      vertex   -1.550000e-03 1.898203e-19 -4.075000e-01
      vertex   -1.342339e-03 7.750000e-04 -4.225000e-01
      vertex   -1.550000e-03 1.898203e-19 -4.225000e-01
    endloop
  endfacet
  facet normal -9.659258e-01 -2.588190e-01 -0.000000e+00
    outer loop
      vertex   -1.550000e-03 1.898203e-19 -4.075000e-01
      vertex   -1.550000e-03 1.898203e-19 -4.225000e-01
      vertex   -1.342339e-03 -7.750000e-04 -4.075000e-01
    endloop
  endfacet
  facet normal -9.659258e-01 -2.588190e-01 -1.022196e-17
    outer loop
      vertex   -1.342339e-03 -7.750000e-04 -4.075000e-01
      vertex   -1.550000e-03 1.898203e-19 -4.225000e-01
      vertex   -1.342339e-03 -7.750000e-04 -4.225000e-01
    endloop
  endfacet
  facet normal -7.071068e-01 -7.071068e-01 -1.172067e-32
    outer loop
      vertex   -1.342339e-03 -7.750000e-04 -4.075000e-01
      vertex   -1.342339e-03 -7.750000e-04 -4.225000e-01
      vertex   -7.750000e-04 -1.342339e-03 -4.075000e-01
    endloop
  endfacet
  facet normal -7.071068e-01 -7.071068e-01 -2.044391e-17
    outer loop
      vertex   -7.750000e-04 -1.342339e-03 -4.075000e-01
      vertex   -1.342339e-03 -7.750000e-04 -4.225000e-01
      vertex   -7.750000e-04 -1.342339e-03 -4.225000e-01
    endloop
  endfacet
  facet normal -2.588190e-01 -9.659258e-01 -7.482991e-18
    outer loop
      vertex   -7.750000e-04 -1.342339e-03 -4.075000e-01
      vertex   -7.750000e-04 -1.342339e-03 -4.225000e-01
      vertex   -2.847304e-19 -1.550000e-03 -4.075000e-01
    endloop
  endfacet
  facet normal -2.588190e-01 -9.659258e-01 -6.550546e-18
    outer loop
      vertex   -2.847304e-19 -1.550000e-03 -4.075000e-01
      vertex   -7.750000e-04 -1.342339e-03 -4.225000e-01
      vertex   9.491013e-20 -1.550000e-03 -4.225000e-01
    endloop
  endfacet
  facet normal 2.588190e-01 -9.659258e-01 6.550546e-18
    outer loop
      vertex   -2.847304e-19 -1.550000e-03 -4.075000e-01
      vertex   9.491013e-20 -1.550000e-03 -4.225000e-01
      vertex   7.750000e-04 -1.342339e-03 -4.075000e-01
    endloop
  endfacet
  facet normal 2.588190e-01 -9.659258e-01 -2.418541e-17
    outer loop
      vertex   7.750000e-04 -1.342339e-03 -4.075000e-01
      vertex   9.491013e-20 -1.550000e-03 -4.225000e-01
      vertex   7.750000e-04 -1.342339e-03 -4.225000e-01
    endloop
  endfacet
  facet normal 7.071068e-01 -7.071068e-01 -1.022196e-17
    outer loop
      vertex   7.750000e-04 -1.342339e-03 -4.075000e-01
      vertex   7.750000e-04 -1.342339e-03 -4.225000e-01
      vertex   1.342339e-03 -7.750000e-04 -4.075000e-01
    endloop
  endfacet
  facet normal 7.071068e-01 -7.071068e-01 -1.562757e-32
    outer loop
      vertex   1.342339e-03 -7.750000e-04 -4.075000e-01
      vertex   7.750000e-04 -1.342339e-03 -4.225000e-01
      vertex   1.342339e-03 -7.750000e-04 -4.225000e-01
    endloop
  endfacet
  facet normal -9.659258e-01 2.588190e-01 0.000000e+00
    outer loop
      vertex   -1.550000e-03 1.898203e-19 -4.825000e-01
      vertex   -1.550000e-03 1.898203e-19 -4.675000e-01
      vertex   -1.342339e-03 7.750000e-04 -4.825000e-01
    endloop
  endfacet
  facet normal -9.659258e-01 2.588190e-01 0.000000e+00
    outer loop
      vertex   -1.342339e-03 7.750000e-04 -4.825000e-01
      vertex   -1.550000e-03 1.898203e-19 -4.675000e-01
      vertex   -1.342339e-03 7.750000e-04 -4.675000e-01
    endloop
  endfacet
  facet normal -7.071068e-01 7.071068e-01 0.000000e+00
    outer loop
      vertex   -1.342339e-03 7.750000e-04 -4.825000e-01
      vertex   -1.342339e-03 7.750000e-04 -4.675000e-01
      vertex   -7.750000e-04 1.342339e-03 -4.825000e-01
    endloop
  endfacet
  facet normal -7.071068e-01 7.071068e-01 0.000000e+00
    outer loop
      vertex   -7.750000e-04 1.342339e-03 -4.825000e-01
      vertex   -1.342339e-03 7.750000e-04 -4.675000e-01
      vertex   -7.750000e-04 1.342339e-03 -4.675000e-01
    endloop
  endfacet
  facet normal -2.588190e-01 9.659258e-01 0.000000e+00
    outer loop
      vertex   -7.750000e-04 1.342339e-03 -4.825000e-01
      vertex   -7.750000e-04 1.342339e-03 -4.675000e-01
      vertex   -2.492590e-19 1.550000e-03 -4.825000e-01
    endloop
  endfacet
  facet normal -2.588190e-01 9.659258e-01 0.000000e+00
    outer loop
      vertex   -2.492590e-19 1.550000e-03 -4.825000e-01
      vertex   -7.750000e-04 1.342339e-03 -4.675000e-01
      vertex   -2.492590e-19 1.550000e-03 -4.675000e-01
    endloop
  endfacet
  facet normal 2.588190e-01 9.659258e-01 -0.000000e+00
    outer loop
      vertex   -2.492590e-19 1.550000e-03 -4.825000e-01
      vertex   -2.492590e-19 1.550000e-03 -4.675000e-01
      vertex   7.750000e-04 1.342339e-03 -4.825000e-01
    endloop
  endfacet
  facet normal 2.588190e-01 9.659258e-01 -7.482991e-18
    outer loop
      vertex   7.750000e-04 1.342339e-03 -4.825000e-01
      vertex   -2.492590e-19 1.550000e-03 -4.675000e-01
      vertex   7.750000e-04 1.342339e-03 -4.675000e-01
    endloop
  endfacet
  facet normal 7.071068e-01 7.071068e-01 -2.044391e-17
    outer loop
      vertex   7.750000e-04 1.342339e-03 -4.825000e-01
      vertex   7.750000e-04 1.342339e-03 -4.675000e-01
      vertex   1.342339e-03 7.750000e-04 -4.825000e-01
    endloop
  endfacet
  facet normal 7.071068e-01 7.071068e-01 1.022196e-17
    outer loop
      vertex   1.342339e-03 7.750000e-04 -4.825000e-01
      vertex   7.750000e-04 1.342339e-03 -4.675000e-01
      vertex   1.342339e-03 7.750000e-04 -4.675000e-01
    endloop
  endfacet
  facet normal 9.659258e-01 2.588190e-01 3.741496e-18
    outer loop
      vertex   1.342339e-03 7.750000e-04 -4.825000e-01
      vertex   1.342339e-03 7.750000e-04 -4.675000e-01
      vertex   1.550000e-03 0.000000e+00 -4.825000e-01
    endloop
  endfacet
  facet normal 9.659258e-01 2.588190e-01 -0.000000e+00
    outer loop
      vertex   1.550000e-03 0.000000e+00 -4.825000e-01
      vertex   1.342339e-03 7.750000e-04 -4.675000e-01
      vertex   1.550000e-03 0.000000e+00 -4.675000e-01
    endloop
  endfacet
  facet normal 9.659258e-01 -2.588190e-01 0.000000e+00
    outer loop
      vertex   1.550000e-03 0.000000e+00 -4.825000e-01
      vertex   1.550000e-03 0.000000e+00 -4.675000e-01
      vertex   1.342339e-03 -7.750000e-04 -4.825000e-01
    endloop
  endfacet
  facet normal 9.659258e-01 -2.588190e-01 -3.741496e-18
    outer loop
      vertex   1.342339e-03 -7.750000e-04 -4.825000e-01
      vertex   1.550000e-03 0.000000e+00 -4.675000e-01
      vertex   1.342339e-03 -7.750000e-04 -4.675000e-01
    endloop
  endfacet
  facet normal 7.071068e-01 -7.071068e-01 -1.022196e-17
    outer loop
      vertex   1.342339e-03 -7.750000e-04 -4.825000e-01
      vertex   1.342339e-03 -7.750000e-04 -4.675000e-01
      vertex   7.750000e-04 -1.342339e-03 -4.825000e-01
    endloop
  endfacet
  facet normal 7.071068e-01 -7.071068e-01 -1.953446e-33
    outer loop
      vertex   7.750000e-04 -1.342339e-03 -4.825000e-01
      vertex   1.342339e-03 -7.750000e-04 -4.675000e-01
      vertex   7.750000e-04 -1.342339e-03 -4.675000e-01
    endloop
  endfacet
  facet normal 2.588190e-01 -9.659258e-01 -1.022196e-17
    outer loop
      vertex   7.750000e-04 -1.342339e-03 -4.825000e-01
      vertex   7.750000e-04 -1.342339e-03 -4.675000e-01
      vertex   9.491013e-20 -1.550000e-03 -4.825000e-01
    endloop
  endfacet
  facet normal 2.588190e-01 -9.659258e-01 0.000000e+00
    outer loop
      vertex   9.491013e-20 -1.550000e-03 -4.825000e-01
      vertex   7.750000e-04 -1.342339e-03 -4.675000e-01
      vertex   9.491013e-20 -1.550000e-03 -4.675000e-01
    endloop
  endfacet
  facet normal -2.588190e-01 -9.659258e-01 0.000000e+00
    outer loop
      vertex   9.491013e-20 -1.550000e-03 -4.825000e-01
      vertex   9.491013e-20 -1.550000e-03 -4.675000e-01
      vertex   -7.750000e-04 -1.342339e-03 -4.825000e-01
    endloop
  endfacet
  facet normal -2.588190e-01 -9.659258e-01 0.000000e+00
    outer loop
      vertex   -7.750000e-04 -1.342339e-03 -4.825000e-01
      vertex   9.491013e-20 -1.550000e-03 -4.675000e-01
      vertex   -7.750000e-04 -1.342339e-03 -4.675000e-01
    endloop
  endfacet
  facet normal -7.071068e-01 -7.071068e-01 0.000000e+00
    outer loop
      vertex   -7.750000e-04 -1.342339e-03 -4.825000e-01
      vertex   -7.750000e-04 -1.342339e-03 -4.675000e-01
      vertex   -1.342339e-03 -7.750000e-04 -4.825000e-01
    endloop
  endfacet
  facet normal -7.071068e-01 -7.071068e-01 0.000000e+00
    outer loop
      vertex   -1.342339e-03 -7.750000e-04 -4.825000e-01
      vertex   -7.750000e-04 -1.342339e-03 -4.675000e-01
      vertex   -1.342339e-03 -7.750000e-04 -4.675000e-01
    endloop
  endfacet
  facet normal -9.659258e-01 -2.588190e-01 0.000000e+00
    outer loop
      vertex   -1.342339e-03 -7.750000e-04 -4.825000e-01
      vertex   -1.342339e-03 -7.750000e-04 -4.675000e-01
      vertex   -1.550000e-03 1.898203e-19 -4.825000e-01
    endloop
  endfacet
  facet normal -9.659258e-01 -2.588190e-01 0.000000e+00
    outer loop
      vertex   -1.550000e-03 1.898203e-19 -4.825000e-01
      vertex   -1.342339e-03 -7.750000e-04 -4.675000e-01
      vertex   -1.550000e-03 1.898203e-19 -4.675000e-01
    endloop
  endfacet
  facet normal -9.659258e-01 2.588190e-01 0.000000e+00
    outer loop
      vertex   -1.550000e-03 1.898203e-19 -4.675000e-01
      vertex   -1.550000e-03 1.898203e-19 -4.525000e-01
      vertex   -1.342339e-03 7.750000e-04 -4.675000e-01
    endloop
  endfacet
  facet normal -9.659258e-01 2.588190e-01 4.609713e-18
    outer loop
      vertex   -1.342339e-03 7.750000e-04 -4.675000e-01
      vertex   -1.550000e-03 1.898203e-19 -4.525000e-01
      vertex   -1.342339e-03 7.750000e-04 -4.525000e-01
    endloop
  endfacet
  facet normal -7.071068e-01 7.071068e-01 -1.533293e-17
    outer loop
      vertex   -1.342339e-03 7.750000e-04 -4.675000e-01
      vertex   -1.342339e-03 7.750000e-04 -4.525000e-01
      vertex   -7.750000e-04 1.342339e-03 -4.675000e-01
    endloop
  endfacet
  facet normal -7.071068e-01 7.071068e-01 1.533293e-17
    outer loop
      vertex   -7.750000e-04 1.342339e-03 -4.675000e-01
      vertex   -1.342339e-03 7.750000e-04 -4.525000e-01
      vertex   -7.750000e-04 1.342339e-03 -4.525000e-01
    endloop
  endfacet
  facet normal -2.588190e-01 9.659258e-01 -4.609713e-18
    outer loop
      vertex   -7.750000e-04 1.342339e-03 -4.675000e-01
      vertex   -7.750000e-04 1.342339e-03 -4.525000e-01
      vertex   -2.492590e-19 1.550000e-03 -4.675000e-01
    endloop
  endfacet
  facet normal -2.588190e-01 9.659258e-01 0.000000e+00
    outer loop
      vertex   -2.492590e-19 1.550000e-03 -4.675000e-01
      vertex   -7.750000e-04 1.342339e-03 -4.525000e-01
      vertex   -2.492590e-19 1.550000e-03 -4.525000e-01
    endloop
  endfacet
  facet normal 2.588190e-01 9.659258e-01 -0.000000e+00
    outer loop
      vertex   -2.492590e-19 1.550000e-03 -4.675000e-01
      vertex   -2.492590e-19 1.550000e-03 -4.525000e-01
      vertex   7.750000e-04 1.342339e-03 -4.675000e-01
    endloop
  endfacet
  facet normal 2.588190e-01 9.659258e-01 1.022196e-17
    outer loop
      vertex   7.750000e-04 1.342339e-03 -4.675000e-01
      vertex   -2.492590e-19 1.550000e-03 -4.525000e-01
      vertex   7.750000e-04 1.342339e-03 -4.525000e-01
    endloop
  endfacet
  facet normal 7.071068e-01 7.071068e-01 3.906892e-33
    outer loop
      vertex   7.750000e-04 1.342339e-03 -4.675000e-01
      vertex   7.750000e-04 1.342339e-03 -4.525000e-01
      vertex   1.342339e-03 7.750000e-04 -4.675000e-01
    endloop
  endfacet
  facet normal 7.071068e-01 7.071068e-01 5.110978e-18
    outer loop
      vertex   1.342339e-03 7.750000e-04 -4.675000e-01
      vertex   7.750000e-04 1.342339e-03 -4.525000e-01
      vertex   1.342339e-03 7.750000e-04 -4.525000e-01
    endloop
  endfacet
  facet normal 9.659258e-01 2.588190e-01 1.870748e-18
    outer loop
      vertex   1.342339e-03 7.750000e-04 -4.675000e-01
      vertex   1.342339e-03 7.750000e-04 -4.525000e-01
      vertex   1.550000e-03 0.000000e+00 -4.675000e-01
    endloop
  endfacet
  facet normal 9.659258e-01 2.588190e-01 -0.000000e+00
    outer loop
      vertex   1.550000e-03 0.000000e+00 -4.675000e-01
      vertex   1.342339e-03 7.750000e-04 -4.525000e-01
      vertex   1.550000e-03 0.000000e+00 -4.525000e-01
    endloop
  endfacet
  facet normal 9.659258e-01 -2.588190e-01 0.000000e+00
    outer loop
      vertex   1.550000e-03 0.000000e+00 -4.675000e-01
      vertex   1.550000e-03 0.000000e+00 -4.525000e-01
      vertex   1.342339e-03 -7.750000e-04 -4.675000e-01
    endloop
  endfacet
  facet normal 9.659258e-01 -2.588190e-01 -1.870748e-18
    outer loop
      vertex   1.342339e-03 -7.750000e-04 -4.675000e-01
      vertex   1.550000e-03 0.000000e+00 -4.525000e-01
      vertex   1.342339e-03 -7.750000e-04 -4.525000e-01
    endloop
  endfacet
  facet normal 7.071068e-01 -7.071068e-01 -5.110978e-18
    outer loop
      vertex   1.342339e-03 -7.750000e-04 -4.675000e-01
      vertex   1.342339e-03 -7.750000e-04 -4.525000e-01
      vertex   7.750000e-04 -1.342339e-03 -4.675000e-01
    endloop
  endfacet
  facet normal 7.071068e-01 -7.071068e-01 2.044391e-17
    outer loop
      vertex   7.750000e-04 -1.342339e-03 -4.675000e-01
      vertex   1.342339e-03 -7.750000e-04 -4.525000e-01
      vertex   7.750000e-04 -1.342339e-03 -4.525000e-01
    endloop
  endfacet
  facet normal 2.588190e-01 -9.659258e-01 7.482991e-18
    outer loop
      vertex   7.750000e-04 -1.342339e-03 -4.675000e-01
      vertex   7.750000e-04 -1.342339e-03 -4.525000e-01
      vertex   9.491013e-20 -1.550000e-03 -4.675000e-01
    endloop
  endfacet
  facet normal 2.588190e-01 -9.659258e-01 0.000000e+00
    outer loop
      vertex   9.491013e-20 -1.550000e-03 -4.675000e-01
      vertex   7.750000e-04 -1.342339e-03 -4.525000e-01
      vertex   9.491013e-20 -1.550000e-03 -4.525000e-01
    endloop
  endfacet
  facet normal -2.588190e-01 -9.659258e-01 0.000000e+00
    outer loop
      vertex   9.491013e-20 -1.550000e-03 -4.675000e-01
      vertex   9.491013e-20 -1.550000e-03 -4.525000e-01
      vertex   -7.750000e-04 -1.342339e-03 -4.675000e-01
    endloop
  endfacet
  facet normal -2.588190e-01 -9.659258e-01 4.609713e-18
    outer loop
      vertex   -7.750000e-04 -1.342339e-03 -4.675000e-01
      vertex   9.491013e-20 -1.550000e-03 -4.525000e-01
      vertex   -7.750000e-04 -1.342339e-03 -4.525000e-01
    endloop
  endfacet
  facet normal -7.071068e-01 -7.071068e-01 -1.533293e-17
    outer loop
      vertex   -7.750000e-04 -1.342339e-03 -4.675000e-01
      vertex   -7.750000e-04 -1.342339e-03 -4.525000e-01
      vertex   -1.342339e-03 -7.750000e-04 -4.675000e-01
    endloop
  endfacet
  facet normal -7.071068e-01 -7.071068e-01 2.044391e-17
    outer loop
      vertex   -1.342339e-03 -7.750000e-04 -4.675000e-01
      vertex   -7.750000e-04 -1.342339e-03 -4.525000e-01
      vertex   -1.342339e-03 -7.750000e-04 -4.525000e-01
    endloop
  endfacet
  facet normal -9.659258e-01 -2.588190e-01 -2.738965e-18
    outer loop
      vertex   -1.342339e-03 -7.750000e-04 -4.675000e-01
      vertex   -1.342339e-03 -7.750000e-04 -4.525000e-01
      vertex   -1.550000e-03 1.898203e-19 -4.675000e-01
    endloop
  endfacet
  facet normal -9.659258e-01 -2.588190e-01 0.000000e+00
    outer loop
      vertex   -1.550000e-03 1.898203e-19 -4.675000e-01
      vertex   -1.342339e-03 -7.750000e-04 -4.525000e-01
      vertex   -1.550000e-03 1.898203e-19 -4.525000e-01
    endloop
  endfacet
  facet normal -9.659258e-01 2.588190e-01 0.000000e+00
    outer loop
      vertex   -1.550000e-03 1.898203e-19 -4.525000e-01
      vertex   -1.550000e-03 1.898203e-19 -4.375000e-01
      vertex   -1.342339e-03 7.750000e-04 -4.525000e-01
    endloop
  endfacet
  facet normal -9.659258e-01 2.588190e-01 0.000000e+00
    outer loop
      vertex   -1.342339e-03 7.750000e-04 -4.525000e-01
      vertex   -1.550000e-03 1.898203e-19 -4.375000e-01
      vertex   -1.342339e-03 7.750000e-04 -4.375000e-01
    endloop
  endfacet
  facet normal -7.071068e-01 7.071068e-01 0.000000e+00
    outer loop
      vertex   -1.342339e-03 7.750000e-04 -4.525000e-01
      vertex   -1.342339e-03 7.750000e-04 -4.375000e-01
      vertex   -7.750000e-04 1.342339e-03 -4.525000e-01
    endloop
  endfacet
  facet normal -7.071068e-01 7.071068e-01 0.000000e+00
    outer loop
      vertex   -7.750000e-04 1.342339e-03 -4.525000e-01
      vertex   -1.342339e-03 7.750000e-04 -4.375000e-01
      vertex   -7.750000e-04 1.342339e-03 -4.375000e-01
    endloop
  endfacet
  facet normal -2.588190e-01 9.659258e-01 0.000000e+00
    outer loop
      vertex   -7.750000e-04 1.342339e-03 -4.525000e-01
      vertex   -7.750000e-04 1.342339e-03 -4.375000e-01
      vertex   -2.492590e-19 1.550000e-03 -4.525000e-01
    endloop
  endfacet
  facet normal -2.588190e-01 9.659258e-01 0.000000e+00
    outer loop
      vertex   -2.492590e-19 1.550000e-03 -4.525000e-01
      vertex   -7.750000e-04 1.342339e-03 -4.375000e-01
      vertex   -2.492590e-19 1.550000e-03 -4.375000e-01
    endloop
  endfacet
  facet normal 2.588190e-01 9.659258e-01 -0.000000e+00
    outer loop
      vertex   -2.492590e-19 1.550000e-03 -4.525000e-01
      vertex   -2.492590e-19 1.550000e-03 -4.375000e-01
      vertex   7.750000e-04 1.342339e-03 -4.525000e-01
    endloop
  endfacet
  facet normal 2.588190e-01 9.659258e-01 -0.000000e+00
    outer loop
      vertex   7.750000e-04 1.342339e-03 -4.525000e-01
      vertex   -2.492590e-19 1.550000e-03 -4.375000e-01
      vertex   7.750000e-04 1.342339e-03 -4.375000e-01
    endloop
  endfacet
  facet normal 7.071068e-01 7.071068e-01 -0.000000e+00
    outer loop
      vertex   7.750000e-04 1.342339e-03 -4.525000e-01
      vertex   7.750000e-04 1.342339e-03 -4.375000e-01
      vertex   1.342339e-03 7.750000e-04 -4.525000e-01
    endloop
  endfacet
  facet normal 7.071068e-01 7.071068e-01 1.022196e-17
    outer loop
      vertex   1.342339e-03 7.750000e-04 -4.525000e-01
      vertex   7.750000e-04 1.342339e-03 -4.375000e-01
      vertex   1.342339e-03 7.750000e-04 -4.375000e-01
    endloop
  endfacet
  facet normal 9.659258e-01 2.588190e-01 3.741496e-18
    outer loop
      vertex   1.342339e-03 7.750000e-04 -4.525000e-01
      vertex   1.342339e-03 7.750000e-04 -4.375000e-01
      vertex   1.550000e-03 0.000000e+00 -4.525000e-01
    endloop
  endfacet
  facet normal 9.659258e-01 2.588190e-01 -0.000000e+00
    outer loop
      vertex   1.550000e-03 0.000000e+00 -4.525000e-01
      vertex   1.342339e-03 7.750000e-04 -4.375000e-01
      vertex   1.550000e-03 0.000000e+00 -4.375000e-01
    endloop
  endfacet
  facet normal 9.659258e-01 -2.588190e-01 0.000000e+00
    outer loop
      vertex   1.550000e-03 0.000000e+00 -4.525000e-01
      vertex   1.550000e-03 0.000000e+00 -4.375000e-01
      vertex   1.342339e-03 -7.750000e-04 -4.525000e-01
    endloop
  endfacet
  facet normal 9.659258e-01 -2.588190e-01 -3.741496e-18
    outer loop
      vertex   1.342339e-03 -7.750000e-04 -4.525000e-01
      vertex   1.550000e-03 0.000000e+00 -4.375000e-01
      vertex   1.342339e-03 -7.750000e-04 -4.375000e-01
    endloop
  endfacet
  facet normal 7.071068e-01 -7.071068e-01 -1.022196e-17
    outer loop
      vertex   1.342339e-03 -7.750000e-04 -4.525000e-01
      vertex   1.342339e-03 -7.750000e-04 -4.375000e-01
      vertex   7.750000e-04 -1.342339e-03 -4.525000e-01
    endloop
  endfacet
  facet normal 7.071068e-01 -7.071068e-01 0.000000e+00
    outer loop
      vertex   7.750000e-04 -1.342339e-03 -4.525000e-01
      vertex   1.342339e-03 -7.750000e-04 -4.375000e-01
      vertex   7.750000e-04 -1.342339e-03 -4.375000e-01
    endloop
  endfacet
  facet normal 2.588190e-01 -9.659258e-01 0.000000e+00
    outer loop
      vertex   7.750000e-04 -1.342339e-03 -4.525000e-01
      vertex   7.750000e-04 -1.342339e-03 -4.375000e-01
      vertex   9.491013e-20 -1.550000e-03 -4.525000e-01
    endloop
  endfacet
  facet normal 2.588190e-01 -9.659258e-01 0.000000e+00
    outer loop
      vertex   9.491013e-20 -1.550000e-03 -4.525000e-01
      vertex   7.750000e-04 -1.342339e-03 -4.375000e-01
      vertex   9.491013e-20 -1.550000e-03 -4.375000e-01
    endloop
  endfacet
  facet normal -2.588190e-01 -9.659258e-01 0.000000e+00
    outer loop
      vertex   9.491013e-20 -1.550000e-03 -4.525000e-01
      vertex   9.491013e-20 -1.550000e-03 -4.375000e-01
      vertex   -7.750000e-04 -1.342339e-03 -4.525000e-01
    endloop
  endfacet
  facet normal -2.588190e-01 -9.659258e-01 0.000000e+00
    outer loop
      vertex   -7.750000e-04 -1.342339e-03 -4.525000e-01
      vertex   9.491013e-20 -1.550000e-03 -4.375000e-01
      vertex   -7.750000e-04 -1.342339e-03 -4.375000e-01
    endloop
  endfacet
  facet normal -7.071068e-01 -7.071068e-01 0.000000e+00
    outer loop
      vertex   -7.750000e-04 -1.342339e-03 -4.525000e-01
      vertex   -7.750000e-04 -1.342339e-03 -4.375000e-01
      vertex   -1.342339e-03 -7.750000e-04 -4.525000e-01
    endloop
  endfacet
  facet normal -7.071068e-01 -7.071068e-01 0.000000e+00
    outer loop
      vertex   -1.342339e-03 -7.750000e-04 -4.525000e-01
      vertex   -7.750000e-04 -1.342339e-03 -4.375000e-01
      vertex   -1.342339e-03 -7.750000e-04 -4.375000e-01
    endloop
  endfacet
  facet normal -9.659258e-01 -2.588190e-01 0.000000e+00
    outer loop
      vertex   -1.342339e-03 -7.750000e-04 -4.525000e-01
      vertex   -1.342339e-03 -7.750000e-04 -4.375000e-01
      vertex   -1.550000e-03 1.898203e-19 -4.525000e-01
    endloop
  endfacet
  facet normal -9.659258e-01 -2.588190e-01 0.000000e+00
    outer loop
      vertex   -1.550000e-03 1.898203e-19 -4.525000e-01
      vertex   -1.342339e-03 -7.750000e-04 -4.375000e-01
      vertex   -1.550000e-03 1.898203e-19 -4.375000e-01
    endloop
  endfacet
  facet normal -9.659258e-01 2.588190e-01 0.000000e+00
    outer loop
      vertex   -1.550000e-03 1.898203e-19 -4.375000e-01
      vertex   -1.550000e-03 1.898203e-19 -4.225000e-01
      vertex   -1.342339e-03 7.750000e-04 -4.375000e-01
    endloop
  endfacet
  facet normal -9.659258e-01 2.588190e-01 0.000000e+00
    outer loop
      vertex   -1.342339e-03 7.750000e-04 -4.375000e-01
      vertex   -1.550000e-03 1.898203e-19 -4.225000e-01
      vertex   -1.342339e-03 7.750000e-04 -4.225000e-01
    endloop
  endfacet
  facet normal -7.071068e-01 7.071068e-01 0.000000e+00
    outer loop
      vertex   -1.342339e-03 7.750000e-04 -4.375000e-01
      vertex   -1.342339e-03 7.750000e-04 -4.225000e-01
      vertex   -7.750000e-04 1.342339e-03 -4.375000e-01
    endloop
  endfacet
  facet normal -7.071068e-01 7.071068e-01 0.000000e+00
    outer loop
      vertex   -7.750000e-04 1.342339e-03 -4.375000e-01
      vertex   -1.342339e-03 7.750000e-04 -4.225000e-01
      vertex   -7.750000e-04 1.342339e-03 -4.225000e-01
    endloop
  endfacet
  facet normal -2.588190e-01 9.659258e-01 0.000000e+00
    outer loop
      vertex   -7.750000e-04 1.342339e-03 -4.375000e-01
      vertex   -7.750000e-04 1.342339e-03 -4.225000e-01
      vertex   -2.492590e-19 1.550000e-03 -4.375000e-01
    endloop
  endfacet
  facet normal -2.588190e-01 9.659258e-01 0.000000e+00
    outer loop
      vertex   -2.492590e-19 1.550000e-03 -4.375000e-01
      vertex   -7.750000e-04 1.342339e-03 -4.225000e-01
      vertex   -2.492590e-19 1.550000e-03 -4.225000e-01
    endloop
  endfacet
  facet normal 2.588190e-01 9.659258e-01 -0.000000e+00
    outer loop
      vertex   -2.492590e-19 1.550000e-03 -4.375000e-01
      vertex   -2.492590e-19 1.550000e-03 -4.225000e-01
      vertex   7.750000e-04 1.342339e-03 -4.375000e-01
    endloop
  endfacet
  facet normal 2.588190e-01 9.659258e-01 -0.000000e+00
    outer loop
      vertex   7.750000e-04 1.342339e-03 -4.375000e-01
      vertex   -2.492590e-19 1.550000e-03 -4.225000e-01
      vertex   7.750000e-04 1.342339e-03 -4.225000e-01
    endloop
  endfacet
  facet normal 7.071068e-01 7.071068e-01 -0.000000e+00
    outer loop
      vertex   7.750000e-04 1.342339e-03 -4.375000e-01
      vertex   7.750000e-04 1.342339e-03 -4.225000e-01
      vertex   1.342339e-03 7.750000e-04 -4.375000e-01
    endloop
  endfacet
  facet normal 7.071068e-01 7.071068e-01 -0.000000e+00
    outer loop
      vertex   1.342339e-03 7.750000e-04 -4.375000e-01
      vertex   7.750000e-04 1.342339e-03 -4.225000e-01
      vertex   1.342339e-03 7.750000e-04 -4.225000e-01
    endloop
  endfacet
  facet normal 9.659258e-01 2.588190e-01 -0.000000e+00
    outer loop
      vertex   1.342339e-03 7.750000e-04 -4.375000e-01
      vertex   1.342339e-03 7.750000e-04 -4.225000e-01
      vertex   1.550000e-03 0.000000e+00 -4.375000e-01
    endloop
  endfacet
  facet normal 9.659258e-01 2.588190e-01 -0.000000e+00
    outer loop
      vertex   1.550000e-03 0.000000e+00 -4.375000e-01
      vertex   1.342339e-03 7.750000e-04 -4.225000e-01
      vertex   1.550000e-03 0.000000e+00 -4.225000e-01
    endloop
  endfacet
  facet normal 9.659258e-01 -2.588190e-01 0.000000e+00
    outer loop
      vertex   1.550000e-03 0.000000e+00 -4.375000e-01
      vertex   1.550000e-03 0.000000e+00 -4.225000e-01
      vertex   1.342339e-03 -7.750000e-04 -4.375000e-01
    endloop
  endfacet
  facet normal 9.659258e-01 -2.588190e-01 0.000000e+00
    outer loop
      vertex   1.342339e-03 -7.750000e-04 -4.375000e-01
      vertex   1.550000e-03 0.000000e+00 -4.225000e-01
      vertex   1.342339e-03 -7.750000e-04 -4.225000e-01
    endloop
  endfacet
  facet normal 7.071068e-01 -7.071068e-01 0.000000e+00
    outer loop
      vertex   1.342339e-03 -7.750000e-04 -4.375000e-01
      vertex   1.342339e-03 -7.750000e-04 -4.225000e-01
      vertex   7.750000e-04 -1.342339e-03 -4.375000e-01
    endloop
  endfacet
  facet normal 7.071068e-01 -7.071068e-01 0.000000e+00
    outer loop
      vertex   7.750000e-04 -1.342339e-03 -4.375000e-01
      vertex   1.342339e-03 -7.750000e-04 -4.225000e-01
      vertex   7.750000e-04 -1.342339e-03 -4.225000e-01
    endloop
  endfacet
  facet normal 2.588190e-01 -9.659258e-01 0.000000e+00
    outer loop
      vertex   7.750000e-04 -1.342339e-03 -4.375000e-01
      vertex   7.750000e-04 -1.342339e-03 -4.225000e-01
      vertex   9.491013e-20 -1.550000e-03 -4.375000e-01
    endloop
  endfacet
  facet normal 2.588190e-01 -9.659258e-01 0.000000e+00
    outer loop
      vertex   9.491013e-20 -1.550000e-03 -4.375000e-01
      vertex   7.750000e-04 -1.342339e-03 -4.225000e-01
      vertex   9.491013e-20 -1.550000e-03 -4.225000e-01
    endloop
  endfacet
  facet normal -2.588190e-01 -9.659258e-01 0.000000e+00
    outer loop
      vertex   9.491013e-20 -1.550000e-03 -4.375000e-01
      vertex   9.491013e-20 -1.550000e-03 -4.225000e-01
      vertex   -7.750000e-04 -1.342339e-03 -4.375000e-01
    endloop
  endfacet
  facet normal -2.588190e-01 -9.659258e-01 0.000000e+00
    outer loop
      vertex   -7.750000e-04 -1.342339e-03 -4.375000e-01
      vertex   9.491013e-20 -1.550000e-03 -4.225000e-01
      vertex   -7.750000e-04 -1.342339e-03 -4.225000e-01
    endloop
  endfacet
  facet normal -7.071068e-01 -7.071068e-01 0.000000e+00
    outer loop
      vertex   -7.750000e-04 -1.342339e-03 -4.375000e-01
      vertex   -7.750000e-04 -1.342339e-03 -4.225000e-01
      vertex   -1.342339e-03 -7.750000e-04 -4.375000e-01
    endloop
  endfacet
  facet normal -7.071068e-01 -7.071068e-01 0.000000e+00
    outer loop
      vertex   -1.342339e-03 -7.750000e-04 -4.375000e-01
      vertex   -7.750000e-04 -1.342339e-03 -4.225000e-01
      vertex   -1.342339e-03 -7.750000e-04 -4.225000e-01
    endloop
  endfacet
  facet normal -9.659258e-01 -2.588190e-01 0.000000e+00
    outer loop
      vertex   -1.342339e-03 -7.750000e-04 -4.375000e-01
      vertex   -1.342339e-03 -7.750000e-04 -4.225000e-01
      vertex   -1.550000e-03 1.898203e-19 -4.375000e-01
    endloop
  endfacet
  facet normal -9.659258e-01 -2.588190e-01 0.000000e+00
    outer loop
      vertex   -1.550000e-03 1.898203e-19 -4.375000e-01
      vertex   -1.342339e-03 -7.750000e-04 -4.225000e-01
      vertex   -1.550000e-03 1.898203e-19 -4.225000e-01
    endloop
  endfacet
endsolid
